<?xml version="1.0" encoding="utf-8"?>
<!-- Generator: Adobe Illustrator 26.4.1, SVG Export Plug-In . SVG Version: 6.00 Build 0)  -->
<svg version="1.0" id="katman_1" xmlns="http://www.w3.org/2000/svg" xmlns:xlink="http://www.w3.org/1999/xlink" x="0px" y="0px"
	width="200" height="80" viewBox="0 180 841.89 280"  xml:space="preserve">
<style type="text/css">
	.st0{fill:#2C5DA8;}
</style>
<polygon class="st0" points="205.82,350.62 205.82,386.28 75.74,269.64 75.74,380.83 49.18,380.83 49.18,210.16 75.74,233.97 "/>
<polygon class="st0" points="533.53,381.72 493.75,381.72 421.26,316.71 401.37,298.88 421.26,281.05 492.21,217.42 531.99,217.42 
	441.15,298.88 "/>
<polygon class="st0" points="792,381.72 761.86,381.72 742.77,346.16 655.21,346.16 636.12,381.72 605.98,381.72 625.07,346.16 
	639.32,319.6 728.52,319.6 698.99,264.59 683.92,236.51 698.99,208.43 714.06,236.51 758.66,319.6 772.91,346.16 "/>
<rect x="561.41" y="217.42" class="st0" width="26.56" height="164.07"/>
<path class="st0" d="M299.89,215.17c-47.11,0-85.3,37.58-85.3,83.95s38.19,83.95,85.3,83.95s85.3-37.58,85.3-83.95
	S347,215.17,299.89,215.17z M299.89,361.23c-33.81,0-61.22-27.81-61.22-62.12S266.09,237,299.89,237s61.22,27.81,61.22,62.12
	S333.7,361.23,299.89,361.23z"/>
</svg>
